<?xml version="1.0" encoding="utf-8"?>
<svg version="1.1" xmlns="http://www.w3.org/2000/svg" viewBox="0 0 100 100">
<g>
	<path d="M37.86,70.25c3.2,3.1,7.8,4.65,13.8,4.65c4.3,0,8-1.07,11.1-3.22c3.1-2.15,5-4.42,5.7-6.83h18.75
		c-3,9.3-7.6,15.95-13.8,19.95c-6.2,4-13.7,6-22.5,6c-6.1,0-11.6-0.98-16.5-2.92c-4.9-1.95-9.05-4.73-12.45-8.33
		c-3.4-3.6-6.03-7.9-7.88-12.9c-1.85-5-2.77-10.5-2.77-16.5c0-5.8,0.95-11.2,2.85-16.2c1.9-5,4.6-9.32,8.1-12.98
		c3.5-3.65,7.67-6.52,12.53-8.62c4.85-2.1,10.22-3.15,16.12-3.15c6.6,0,12.35,1.27,17.25,3.82c4.9,2.55,8.92,5.98,12.07,10.28
		c3.15,4.3,5.42,9.2,6.82,14.7c1.4,5.5,1.9,11.25,1.5,17.25H32.61C32.91,62.15,34.66,67.15,37.86,70.25z M61.93,29.45
		c-2.55-2.8-6.43-4.2-11.62-4.2c-3.4,0-6.23,0.58-8.48,1.73c-2.25,1.15-4.05,2.58-5.4,4.27c-1.35,1.7-2.3,3.5-2.85,5.4
		c-0.55,1.9-0.88,3.6-0.98,5.1h34.65C66.26,36.35,64.48,32.25,61.93,29.45z"/>
</g>
</svg>
